<svg version="1.1" id="Layer_1" xmlns="http://www.w3.org/2000/svg" xmlns:xlink="http://www.w3.org/1999/xlink" x="0px" y="0px"
	 width="100%" viewBox="0 0 500 500" enable-background="new 0 0 500 500" xml:space="preserve">
<path fill="#000000" opacity="000000" stroke="none" 
	d="
M276.000000,501.000000 
	C184.000015,501.000000 92.500046,501.000000 1.000049,501.000000 
	C1.000033,334.333405 1.000033,167.666794 1.000016,1.000139 
	C167.666565,1.000092 334.333130,1.000092 500.999756,1.000046 
	C500.999847,167.666519 500.999847,334.333038 500.999939,500.999786 
	C426.166656,501.000000 351.333344,501.000000 276.000000,501.000000 
M79.501205,296.003448 
	C91.167778,296.003418 102.834473,296.035339 114.500893,295.993530 
	C124.281830,295.958496 129.953644,290.301880 129.989975,280.492035 
	C130.042450,266.325623 130.012894,252.158798 129.987030,237.992203 
	C129.984756,236.742142 129.751602,235.492508 129.602432,234.011963 
	C123.931335,234.011963 118.652901,234.011963 113.415657,234.011963 
	C111.362709,214.939896 104.206001,206.182434 90.735527,206.020157 
	C77.100067,205.855911 69.693619,214.734100 67.557892,234.187119 
	C62.214180,234.187119 56.802708,234.187119 51.094971,234.187119 
	C51.094971,250.917664 50.842888,267.214508 51.213516,283.497192 
	C51.371639,290.443878 57.475620,295.667023 64.503853,295.951782 
	C69.163002,296.140564 73.835587,295.997772 79.501205,296.003448 
M201.874588,234.499969 
	C201.874588,242.920609 201.874588,251.341263 201.874588,259.707153 
	C205.661819,259.707153 208.882004,259.707153 212.526611,259.707153 
	C212.526611,253.360580 212.526611,247.301575 212.526611,241.005249 
	C214.278931,241.005249 215.632431,241.207047 216.904373,240.970474 
	C222.561264,239.918365 226.212158,241.953171 228.552124,247.327621 
	C230.127518,250.946060 232.455643,254.287460 234.800720,257.494110 
	C235.686615,258.705475 237.497253,259.683685 239.009262,259.897003 
	C241.725235,260.280243 244.534058,260.005188 248.043503,260.005188 
	C243.417526,252.754242 239.175797,246.105560 234.899155,239.402176 
	C235.478760,239.008362 235.855850,238.684433 236.287155,238.469193 
	C243.260117,234.989243 246.367538,229.802673 245.520142,223.027588 
	C244.651886,216.085724 240.529816,211.154297 232.742065,210.550110 
	C222.564789,209.760513 212.280014,210.356705 201.874588,210.356705 
	C201.874588,218.218613 201.874588,225.859299 201.874588,234.499969 
M286.023651,220.887482 
	C290.209015,215.291718 299.891235,215.218964 304.145630,220.517838 
	C305.113770,221.723663 307.125488,222.569351 308.718109,222.677307 
	C310.793823,222.818008 312.930603,222.057831 315.202759,221.656784 
	C314.276520,216.078125 311.401123,212.284576 306.145996,210.656250 
	C298.801758,208.380615 291.365479,208.304993 284.106995,210.962051 
	C276.623779,213.701385 273.452087,220.942520 276.252167,228.387451 
	C278.166107,233.476257 282.589417,235.437622 287.315399,236.783401 
	C291.939026,238.100021 296.701019,238.943481 301.295868,240.343887 
	C304.290802,241.256714 307.244080,243.308411 306.027466,246.782791 
	C305.265778,248.958038 302.761688,251.353302 300.542175,252.038040 
	C292.726959,254.449020 287.221252,252.144089 282.612335,245.297287 
	C279.510712,245.882996 276.325836,246.484421 273.129333,247.088043 
	C274.914001,254.242706 279.345306,258.648834 285.834991,259.568878 
	C292.135010,260.462067 298.784943,260.473114 305.067139,259.495758 
	C312.549133,258.331726 316.643250,252.800446 316.803162,246.021545 
	C316.967957,239.037933 313.370300,234.382935 305.664276,232.076843 
	C300.900787,230.651321 296.009583,229.657898 291.217133,228.321899 
	C287.948761,227.410736 285.387970,225.734070 286.023651,220.887482 
M360.792175,238.339142 
	C366.443787,233.301132 367.398163,226.915604 365.393311,220.102539 
	C363.455963,213.518997 358.027924,210.594757 351.729736,210.235199 
	C342.983582,209.735870 334.187592,210.109634 325.251465,210.109634 
	C325.251465,226.833633 325.251465,243.227112 325.251465,259.634369 
	C328.836456,259.634369 332.192627,259.634369 336.030762,259.634369 
	C336.030762,253.697739 336.030762,248.130142 336.030762,242.630005 
	C344.494904,241.752686 352.982513,244.148911 360.792175,238.339142 
M150.505951,219.080902 
	C146.364120,225.871109 146.192307,233.351639 147.157547,240.854431 
	C148.650085,252.455612 156.814682,259.613922 169.272675,260.741028 
	C181.097000,261.810791 190.373062,256.444000 193.964844,246.247253 
	C191.088684,245.155334 188.210449,244.062637 185.343002,242.974014 
	C184.785355,243.889374 184.441605,244.449554 184.101761,245.012100 
	C180.309464,251.289551 175.283997,253.468185 168.027786,251.979660 
	C162.530014,250.851868 158.762283,246.558121 157.894302,239.856674 
	C157.493118,236.759262 157.388428,233.528595 157.785522,230.440140 
	C159.057755,220.545029 165.860016,215.544098 175.374069,218.160599 
	C179.020554,219.163452 182.064362,222.357742 186.336212,225.184296 
	C187.737442,224.785202 190.549454,223.984314 193.655441,223.099686 
	C190.608414,214.733490 184.851273,210.642487 176.816605,209.593079 
	C166.761505,208.279800 157.487381,209.500229 150.505951,219.080902 
M255.027771,216.585114 
	C255.027771,230.985886 255.027771,245.386642 255.027771,259.768677 
	C258.855194,259.768677 262.105804,259.768677 265.519775,259.768677 
	C265.519775,243.143951 265.519775,226.770813 265.519775,210.302155 
	C261.912048,210.302155 258.549500,210.302155 255.027771,210.302155 
	C255.027771,212.313721 255.027771,213.962341 255.027771,216.585114 
M346.746552,290.001770 
	C347.300232,291.116882 347.853882,292.231995 348.407532,293.347107 
	C348.937439,293.141876 349.467377,292.936615 349.997284,292.731384 
	C349.997284,289.780334 349.997284,286.829285 349.997284,284.000397 
	C355.065674,282.337677 358.067535,284.014923 360.271454,288.424530 
	C361.322388,290.527222 362.054901,294.253693 366.422943,292.541077 
	C364.483978,289.505920 362.619476,286.587311 360.631561,283.475494 
	C364.285461,281.466675 367.032867,278.892670 365.505829,274.375092 
	C364.032379,270.015900 360.253113,269.835724 356.474365,269.842773 
	C353.349274,269.848633 350.224182,269.843994 346.746490,269.843994 
	C346.746490,276.519012 346.746490,282.802521 346.746552,290.001770 
M165.356903,270.987274 
	C160.698105,270.469482 156.039307,269.951691 151.335205,269.428864 
	C151.335205,277.823090 151.335205,285.228943 151.335205,293.036469 
	C154.516174,293.036469 157.594971,293.570953 160.376587,292.890564 
	C163.332581,292.167511 167.342606,290.941833 168.416290,288.732361 
	C169.424698,286.657227 167.200806,283.011353 166.230377,279.434631 
	C168.365280,277.631866 169.079315,274.699554 165.356903,270.987274 
M255.559250,293.059143 
	C259.245361,293.059143 262.931458,293.059143 266.617554,293.059143 
	C266.665375,292.298340 266.713196,291.537537 266.760986,290.776733 
	C262.197266,290.480164 257.633514,290.183563 252.350464,289.840271 
	C257.330322,283.251068 261.969818,277.112183 267.109314,270.311768 
	C260.032867,270.311768 254.564178,270.311768 249.095490,270.311768 
	C249.054337,270.861206 249.013199,271.410614 248.972046,271.960052 
	C252.898621,271.960052 256.825195,271.960052 262.099274,271.960052 
	C256.463226,279.556519 251.845627,285.780273 246.445221,293.059143 
	C250.340347,293.059143 252.471100,293.059143 255.559250,293.059143 
M203.140350,279.521545 
	C201.417725,283.879608 199.695099,288.237671 197.972473,292.595703 
	C198.443832,292.919891 198.915176,293.244080 199.386536,293.568268 
	C200.382858,292.324921 201.931122,291.215607 202.271774,289.813019 
	C203.283539,285.646973 206.325089,286.322052 209.272812,286.229828 
	C212.236450,286.137085 214.763519,286.158356 215.743073,289.875427 
	C216.097549,291.220551 217.853699,292.196289 218.970245,293.340576 
	C219.285095,292.998932 219.599930,292.657288 219.914764,292.315643 
	C217.226242,285.569031 214.600830,278.795776 211.778656,272.105499 
	C211.372818,271.143463 210.031479,270.013763 209.100189,269.993103 
	C208.160660,269.972260 206.815720,271.034576 206.313141,271.976898 
	C205.154297,274.149689 204.398392,276.537445 203.140350,279.521545 
M315.296082,293.028809 
	C315.714447,292.715027 316.543304,292.240692 316.492401,292.110504 
	C313.782166,285.181152 311.133057,278.221741 308.155243,271.406311 
	C306.942780,268.631409 304.423218,268.971405 303.360596,271.339874 
	C300.231567,278.313965 297.559265,285.492981 294.708191,292.591766 
	C295.217041,292.917847 295.725891,293.243896 296.234741,293.569977 
	C297.208130,292.295593 298.549469,291.155304 299.073547,289.717194 
	C299.988892,287.205536 301.258942,286.256836 304.096619,286.137756 
	C308.677155,285.945557 312.267975,286.430481 313.150574,291.824951 
	C313.225922,292.285400 314.048981,292.623535 315.296082,293.028809 
z"/>
<path fill="#FDFDFD" opacity="1.000000" stroke="none" 
	d="
M79.001678,296.003418 
	C73.835587,295.997772 69.163002,296.140564 64.503853,295.951782 
	C57.475620,295.667023 51.371639,290.443878 51.213516,283.497192 
	C50.842888,267.214508 51.094971,250.917664 51.094971,234.187119 
	C56.802708,234.187119 62.214180,234.187119 67.557892,234.187119 
	C69.693619,214.734100 77.100067,205.855911 90.735527,206.020157 
	C104.206001,206.182434 111.362709,214.939896 113.415657,234.011963 
	C118.652901,234.011963 123.931335,234.011963 129.602432,234.011963 
	C129.751602,235.492508 129.984756,236.742142 129.987030,237.992203 
	C130.012894,252.158798 130.042450,266.325623 129.989975,280.492035 
	C129.953644,290.301880 124.281830,295.958496 114.500893,295.993530 
	C102.834473,296.035339 91.167778,296.003418 79.001678,296.003418 
M86.714241,217.985443 
	C79.807678,221.801880 78.029907,225.916977 79.819992,233.869843 
	C87.066231,233.869843 94.297432,233.869843 101.493248,233.869843 
	C102.585434,221.867584 97.402557,216.076309 86.714241,217.985443 
M71.481628,249.020889 
	C73.343117,248.560837 75.418037,248.443222 76.965233,247.478897 
	C77.620712,247.070358 77.734947,244.134644 77.103676,243.656464 
	C75.672501,242.572357 73.229950,241.341415 71.907829,241.887451 
	C68.614182,243.247650 68.630760,245.959183 71.481628,249.020889 
M103.518143,244.043518 
	C102.793716,247.844330 104.508972,249.826462 108.211693,249.357315 
	C109.419479,249.204285 111.194160,247.388123 111.294594,246.211777 
	C111.415680,244.793625 110.244781,242.196594 109.248627,241.993210 
	C107.609390,241.658539 105.661049,242.837769 103.518143,244.043518 
z"/>
<path fill="#FCFCFC" opacity="1.000000" stroke="none" 
	d="
M201.874588,233.999969 
	C201.874588,225.859299 201.874588,218.218613 201.874588,210.356705 
	C212.280014,210.356705 222.564789,209.760513 232.742065,210.550110 
	C240.529816,211.154297 244.651886,216.085724 245.520142,223.027588 
	C246.367538,229.802673 243.260117,234.989243 236.287155,238.469193 
	C235.855850,238.684433 235.478760,239.008362 234.899155,239.402176 
	C239.175797,246.105560 243.417526,252.754242 248.043503,260.005188 
	C244.534058,260.005188 241.725235,260.280243 239.009262,259.897003 
	C237.497253,259.683685 235.686615,258.705475 234.800720,257.494110 
	C232.455643,254.287460 230.127518,250.946060 228.552124,247.327621 
	C226.212158,241.953171 222.561264,239.918365 216.904373,240.970474 
	C215.632431,241.207047 214.278931,241.005249 212.526611,241.005249 
	C212.526611,247.301575 212.526611,253.360580 212.526611,259.707153 
	C208.882004,259.707153 205.661819,259.707153 201.874588,259.707153 
	C201.874588,251.341263 201.874588,242.920609 201.874588,233.999969 
M222.394714,232.900742 
	C223.889954,232.885513 225.392731,232.961487 226.879074,232.838623 
	C232.189651,232.399628 235.029144,229.718033 234.999146,225.266373 
	C234.970383,221.001373 232.348633,218.444489 227.076202,218.164627 
	C222.318878,217.912109 217.537567,218.111343 212.662888,218.111343 
	C212.662888,223.253143 212.662888,227.962387 212.662888,232.900757 
	C215.821915,232.900757 218.636398,232.900757 222.394714,232.900742 
z"/>
<path fill="#F6F6F6" opacity="1.000000" stroke="none" 
	d="
M285.956421,221.292465 
	C285.387970,225.734070 287.948761,227.410736 291.217133,228.321899 
	C296.009583,229.657898 300.900787,230.651321 305.664276,232.076843 
	C313.370300,234.382935 316.967957,239.037933 316.803162,246.021545 
	C316.643250,252.800446 312.549133,258.331726 305.067139,259.495758 
	C298.784943,260.473114 292.135010,260.462067 285.834991,259.568878 
	C279.345306,258.648834 274.914001,254.242706 273.129333,247.088043 
	C276.325836,246.484421 279.510712,245.882996 282.612335,245.297287 
	C287.221252,252.144089 292.726959,254.449020 300.542175,252.038040 
	C302.761688,251.353302 305.265778,248.958038 306.027466,246.782791 
	C307.244080,243.308411 304.290802,241.256714 301.295868,240.343887 
	C296.701019,238.943481 291.939026,238.100021 287.315399,236.783401 
	C282.589417,235.437622 278.166107,233.476257 276.252167,228.387451 
	C273.452087,220.942520 276.623779,213.701385 284.106995,210.962051 
	C291.365479,208.304993 298.801758,208.380615 306.145996,210.656250 
	C311.401123,212.284576 314.276520,216.078125 315.202759,221.656784 
	C312.930603,222.057831 310.793823,222.818008 308.718109,222.677307 
	C307.125488,222.569351 305.113770,221.723663 304.145630,220.517838 
	C299.891235,215.218964 290.209015,215.291718 285.956421,221.292465 
z"/>
<path fill="#F9F9F9" opacity="1.000000" stroke="none" 
	d="
M360.514313,238.577057 
	C352.982513,244.148911 344.494904,241.752686 336.030762,242.630005 
	C336.030762,248.130142 336.030762,253.697739 336.030762,259.634369 
	C332.192627,259.634369 328.836456,259.634369 325.251465,259.634369 
	C325.251465,243.227112 325.251465,226.833633 325.251465,210.109634 
	C334.187592,210.109634 342.983582,209.735870 351.729736,210.235199 
	C358.027924,210.594757 363.455963,213.518997 365.393311,220.102539 
	C367.398163,226.915604 366.443787,233.301132 360.514313,238.577057 
M338.614380,218.074127 
	C337.660645,218.645187 335.909912,219.177338 335.879852,219.793472 
	C335.649231,224.518021 335.753174,229.258896 335.753174,234.088486 
	C340.405121,234.088486 344.389801,234.280838 348.347870,234.038269 
	C352.965363,233.755264 355.632355,230.782990 355.672211,226.224609 
	C355.711304,221.753357 353.511383,218.906738 349.028778,218.373367 
	C345.910706,218.002380 342.730316,218.155029 338.614380,218.074127 
z"/>
<path fill="#F6F6F6" opacity="1.000000" stroke="none" 
	d="
M150.715149,218.781189 
	C157.487381,209.500229 166.761505,208.279800 176.816605,209.593079 
	C184.851273,210.642487 190.608414,214.733490 193.655441,223.099686 
	C190.549454,223.984314 187.737442,224.785202 186.336212,225.184296 
	C182.064362,222.357742 179.020554,219.163452 175.374069,218.160599 
	C165.860016,215.544098 159.057755,220.545029 157.785522,230.440140 
	C157.388428,233.528595 157.493118,236.759262 157.894302,239.856674 
	C158.762283,246.558121 162.530014,250.851868 168.027786,251.979660 
	C175.283997,253.468185 180.309464,251.289551 184.101761,245.012100 
	C184.441605,244.449554 184.785355,243.889374 185.343002,242.974014 
	C188.210449,244.062637 191.088684,245.155334 193.964844,246.247253 
	C190.373062,256.444000 181.097000,261.810791 169.272675,260.741028 
	C156.814682,259.613922 148.650085,252.455612 147.157547,240.854431 
	C146.192307,233.351639 146.364120,225.871109 150.715149,218.781189 
z"/>
<path fill="#F5F5F5" opacity="1.000000" stroke="none" 
	d="
M255.027771,216.098038 
	C255.027771,213.962341 255.027771,212.313721 255.027771,210.302155 
	C258.549500,210.302155 261.912048,210.302155 265.519775,210.302155 
	C265.519775,226.770813 265.519775,243.143951 265.519775,259.768677 
	C262.105804,259.768677 258.855194,259.768677 255.027771,259.768677 
	C255.027771,245.386642 255.027771,230.985886 255.027771,216.098038 
z"/>
<path fill="#EFEFEF" opacity="1.000000" stroke="none" 
	d="
M346.746521,289.543884 
	C346.746490,282.802521 346.746490,276.519012 346.746490,269.843994 
	C350.224182,269.843994 353.349274,269.848633 356.474365,269.842773 
	C360.253113,269.835724 364.032379,270.015900 365.505829,274.375092 
	C367.032867,278.892670 364.285461,281.466675 360.631561,283.475494 
	C362.619476,286.587311 364.483978,289.505920 366.422943,292.541077 
	C362.054901,294.253693 361.322388,290.527222 360.271454,288.424530 
	C358.067535,284.014923 355.065674,282.337677 349.997284,284.000397 
	C349.997284,286.829285 349.997284,289.780334 349.997284,292.731384 
	C349.467377,292.936615 348.937439,293.141876 348.407532,293.347107 
	C347.853882,292.231995 347.300232,291.116882 346.746521,289.543884 
M349.966614,279.332001 
	C353.088287,279.762909 356.244385,280.637085 359.314117,280.398804 
	C360.483734,280.308044 362.165771,277.714630 362.274536,276.167572 
	C362.350861,275.082367 360.300598,273.073242 358.950409,272.822968 
	C356.123566,272.299042 353.131958,272.664154 349.956299,272.664154 
	C349.956299,274.794830 349.956299,276.605499 349.966614,279.332001 
z"/>
<path fill="#EBEBEB" opacity="1.000000" stroke="none" 
	d="
M165.689194,271.194031 
	C169.079315,274.699554 168.365280,277.631866 166.230377,279.434631 
	C167.200806,283.011353 169.424698,286.657227 168.416290,288.732361 
	C167.342606,290.941833 163.332581,292.167511 160.376587,292.890564 
	C157.594971,293.570953 154.516174,293.036469 151.335205,293.036469 
	C151.335205,285.228943 151.335205,277.823090 151.335205,269.428864 
	C156.039307,269.951691 160.698105,270.469482 165.689194,271.194031 
M164.179749,283.088287 
	C161.131241,282.667908 158.082748,282.247528 154.694946,281.780334 
	C154.694946,284.963043 154.694946,287.385437 154.694946,290.290833 
	C156.993851,290.290833 159.121490,290.433350 161.223419,290.261475 
	C165.739777,289.892212 166.628815,288.159637 164.179749,283.088287 
M154.433273,273.972748 
	C154.433273,275.747253 154.433273,277.521759 154.433273,280.651398 
	C158.221069,279.483124 161.214905,278.707855 164.034836,277.519867 
	C164.428406,277.354065 164.189056,274.133362 163.866913,274.063660 
	C160.955872,273.433868 157.961472,273.187439 154.988922,272.851654 
	C154.886612,272.840057 154.757004,273.070374 154.433273,273.972748 
z"/>
<path fill="#E1E1E1" opacity="1.000000" stroke="none" 
	d="
M255.080566,293.059143 
	C252.471100,293.059143 250.340347,293.059143 246.445221,293.059143 
	C251.845627,285.780273 256.463226,279.556519 262.099274,271.960052 
	C256.825195,271.960052 252.898621,271.960052 248.972046,271.960052 
	C249.013199,271.410614 249.054337,270.861206 249.095490,270.311768 
	C254.564178,270.311768 260.032867,270.311768 267.109314,270.311768 
	C261.969818,277.112183 257.330322,283.251068 252.350464,289.840271 
	C257.633514,290.183563 262.197266,290.480164 266.760986,290.776733 
	C266.713196,291.537537 266.665375,292.298340 266.617554,293.059143 
	C262.931458,293.059143 259.245361,293.059143 255.080566,293.059143 
z"/>
<path fill="#EBEBEB" opacity="1.000000" stroke="none" 
	d="
M203.309692,279.179749 
	C204.398392,276.537445 205.154297,274.149689 206.313141,271.976898 
	C206.815720,271.034576 208.160660,269.972260 209.100189,269.993103 
	C210.031479,270.013763 211.372818,271.143463 211.778656,272.105499 
	C214.600830,278.795776 217.226242,285.569031 219.914764,292.315643 
	C219.599930,292.657288 219.285095,292.998932 218.970245,293.340576 
	C217.853699,292.196289 216.097549,291.220551 215.743073,289.875427 
	C214.763519,286.158356 212.236450,286.137085 209.272812,286.229828 
	C206.325089,286.322052 203.283539,285.646973 202.271774,289.813019 
	C201.931122,291.215607 200.382858,292.324921 199.386536,293.568268 
	C198.915176,293.244080 198.443832,292.919891 197.972473,292.595703 
	C199.695099,288.237671 201.417725,283.879608 203.309692,279.179749 
M210.650742,276.909302 
	C210.189728,275.938507 209.728714,274.967712 208.877838,273.175903 
	C207.366104,277.062500 206.157715,280.169189 204.853378,283.522583 
	C207.794281,283.522583 210.266052,283.522583 213.081360,283.522583 
	C212.269577,281.303284 211.598053,279.467438 210.650742,276.909302 
z"/>
<path fill="#EBEBEB" opacity="1.000000" stroke="none" 
	d="
M314.910400,293.023651 
	C314.048981,292.623535 313.225922,292.285400 313.150574,291.824951 
	C312.267975,286.430481 308.677155,285.945557 304.096619,286.137756 
	C301.258942,286.256836 299.988892,287.205536 299.073547,289.717194 
	C298.549469,291.155304 297.208130,292.295593 296.234741,293.569977 
	C295.725891,293.243896 295.217041,292.917847 294.708191,292.591766 
	C297.559265,285.492981 300.231567,278.313965 303.360596,271.339874 
	C304.423218,268.971405 306.942780,268.631409 308.155243,271.406311 
	C311.133057,278.221741 313.782166,285.181152 316.492401,292.110504 
	C316.543304,292.240692 315.714447,292.715027 314.910400,293.023651 
M306.408142,274.547150 
	C306.069916,274.244965 305.731720,273.942780 305.393463,273.640594 
	C304.186798,276.856659 302.980103,280.072723 301.645630,283.629425 
	C304.604126,283.629425 307.041504,283.629425 309.800385,283.629425 
	C308.760620,280.737854 307.758850,277.952057 306.408142,274.547150 
z"/>
<path fill="#030303" opacity="1.000000" stroke="none" 
	d="
M87.095047,217.930405 
	C97.402557,216.076309 102.585434,221.867584 101.493248,233.869843 
	C94.297432,233.869843 87.066231,233.869843 79.819992,233.869843 
	C78.029907,225.916977 79.807678,221.801880 87.095047,217.930405 
z"/>
<path fill="#171717" opacity="1.000000" stroke="none" 
	d="
M71.190475,248.815582 
	C68.630760,245.959183 68.614182,243.247650 71.907829,241.887451 
	C73.229950,241.341415 75.672501,242.572357 77.103676,243.656464 
	C77.734947,244.134644 77.620712,247.070358 76.965233,247.478897 
	C75.418037,248.443222 73.343117,248.560837 71.190475,248.815582 
z"/>
<path fill="#171717" opacity="1.000000" stroke="none" 
	d="
M103.680580,243.711151 
	C105.661049,242.837769 107.609390,241.658539 109.248627,241.993210 
	C110.244781,242.196594 111.415680,244.793625 111.294594,246.211777 
	C111.194160,247.388123 109.419479,249.204285 108.211693,249.357315 
	C104.508972,249.826462 102.793716,247.844330 103.680580,243.711151 
z"/>
<path fill="#0B0B0B" opacity="1.000000" stroke="none" 
	d="
M221.922791,232.900757 
	C218.636398,232.900757 215.821915,232.900757 212.662888,232.900757 
	C212.662888,227.962387 212.662888,223.253143 212.662888,218.111343 
	C217.537567,218.111343 222.318878,217.912109 227.076202,218.164627 
	C232.348633,218.444489 234.970383,221.001373 234.999146,225.266373 
	C235.029144,229.718033 232.189651,232.399628 226.879074,232.838623 
	C225.392731,232.961487 223.889954,232.885513 221.922791,232.900757 
z"/>
<path fill="#030303" opacity="1.000000" stroke="none" 
	d="
M339.096069,218.073944 
	C342.730316,218.155029 345.910706,218.002380 349.028778,218.373367 
	C353.511383,218.906738 355.711304,221.753357 355.672211,226.224609 
	C355.632355,230.782990 352.965363,233.755264 348.347870,234.038269 
	C344.389801,234.280838 340.405121,234.088486 335.753174,234.088486 
	C335.753174,229.258896 335.649231,224.518021 335.879852,219.793472 
	C335.909912,219.177338 337.660645,218.645187 339.096069,218.073944 
z"/>
<path fill="#0E0E0E" opacity="1.000000" stroke="none" 
	d="
M349.961456,278.874084 
	C349.956299,276.605499 349.956299,274.794830 349.956299,272.664154 
	C353.131958,272.664154 356.123566,272.299042 358.950409,272.822968 
	C360.300598,273.073242 362.350861,275.082367 362.274536,276.167572 
	C362.165771,277.714630 360.483734,280.308044 359.314117,280.398804 
	C356.244385,280.637085 353.088287,279.762909 349.961456,278.874084 
z"/>
<path fill="#0E0E0E" opacity="1.000000" stroke="none" 
	d="
M164.508560,283.325684 
	C166.628815,288.159637 165.739777,289.892212 161.223419,290.261475 
	C159.121490,290.433350 156.993851,290.290833 154.694946,290.290833 
	C154.694946,287.385437 154.694946,284.963043 154.694946,281.780334 
	C158.082748,282.247528 161.131241,282.667908 164.508560,283.325684 
z"/>
<path fill="#171717" opacity="1.000000" stroke="none" 
	d="
M154.536682,273.580322 
	C154.757004,273.070374 154.886612,272.840057 154.988922,272.851654 
	C157.961472,273.187439 160.955872,273.433868 163.866913,274.063660 
	C164.189056,274.133362 164.428406,277.354065 164.034836,277.519867 
	C161.214905,278.707855 158.221069,279.483124 154.433273,280.651398 
	C154.433273,277.521759 154.433273,275.747253 154.536682,273.580322 
z"/>
<path fill="#171717" opacity="1.000000" stroke="none" 
	d="
M210.788635,277.270447 
	C211.598053,279.467438 212.269577,281.303284 213.081360,283.522583 
	C210.266052,283.522583 207.794281,283.522583 204.853378,283.522583 
	C206.157715,280.169189 207.366104,277.062500 208.877838,273.175903 
	C209.728714,274.967712 210.189728,275.938507 210.788635,277.270447 
z"/>
<path fill="#171717" opacity="1.000000" stroke="none" 
	d="
M306.582642,274.856720 
	C307.758850,277.952057 308.760620,280.737854 309.800385,283.629425 
	C307.041504,283.629425 304.604126,283.629425 301.645630,283.629425 
	C302.980103,280.072723 304.186798,276.856659 305.393494,273.640594 
	C305.731720,273.942780 306.069916,274.244965 306.582642,274.856720 
z"/>
</svg>